<svg width="64" height="40" viewBox="0 0 64 40" fill="none" xmlns="http://www.w3.org/2000/svg">
<path d="M25.8222 17.028H23.1118C22.9263 17.028 22.7686 17.1628 22.7397 17.3459L21.6435 24.2961C21.6217 24.4332 21.7279 24.5569 21.867 24.5569H23.161C23.3464 24.5569 23.5042 24.4221 23.5331 24.2386L23.8288 22.364C23.8573 22.1805 24.0154 22.0458 24.2005 22.0458H25.0585C26.8439 22.0458 27.8744 21.1818 28.1435 19.4697C28.2647 18.7207 28.1486 18.1322 27.7979 17.72C27.4126 17.2674 26.7294 17.028 25.8222 17.028ZM26.1349 19.5664C25.9867 20.539 25.2436 20.539 24.5251 20.539H24.1161L24.403 18.7227C24.4201 18.6129 24.5152 18.5321 24.6261 18.5321H24.8136C25.3031 18.5321 25.7648 18.5321 26.0033 18.8111C26.1456 18.9775 26.1892 19.2248 26.1349 19.5664Z" fill="#253B80"/>
<path d="M33.926 19.5351H32.6281C32.5175 19.5351 32.422 19.6159 32.405 19.7257L32.3475 20.0887L32.2568 19.9572C31.9758 19.5494 31.3492 19.413 30.7238 19.413C29.2895 19.413 28.0645 20.4993 27.8259 22.0232C27.7019 22.7833 27.8782 23.5101 28.3094 24.017C28.705 24.4831 29.2709 24.6773 29.9442 24.6773C31.0999 24.6773 31.7407 23.9342 31.7407 23.9342L31.6829 24.2948C31.6611 24.4328 31.7673 24.5564 31.9056 24.5564H33.0747C33.2606 24.5564 33.4176 24.4217 33.4469 24.2382L34.1484 19.7959C34.1706 19.6591 34.0647 19.5351 33.926 19.5351ZM32.1169 22.0612C31.9916 22.8027 31.4031 23.3005 30.6525 23.3005C30.2756 23.3005 29.9744 23.1796 29.781 22.9505C29.5891 22.7231 29.5162 22.3993 29.5773 22.0386C29.6942 21.3035 30.2926 20.7894 31.0317 20.7894C31.4003 20.7894 31.6999 20.9119 31.8973 21.1429C32.0951 21.3764 32.1735 21.7021 32.1169 22.0612Z" fill="#253B80"/>
<path d="M40.8383 19.5352H39.534C39.4095 19.5352 39.2926 19.597 39.2221 19.7004L37.4232 22.3502L36.6607 19.8039C36.6127 19.6445 36.4657 19.5352 36.2992 19.5352H35.0176C34.8618 19.5352 34.7536 19.6873 34.8032 19.834L36.2398 24.05L34.8892 25.9567C34.7829 26.1069 34.8899 26.3134 35.0734 26.3134H36.3761C36.4998 26.3134 36.6155 26.2531 36.6857 26.1517L41.0237 19.8899C41.1276 19.7401 41.021 19.5352 40.8383 19.5352Z" fill="#253B80"/>
<path d="M45.1562 17.028H42.4454C42.2603 17.028 42.1026 17.1628 42.0737 17.3459L40.9775 24.2961C40.9557 24.4332 41.0619 24.5569 41.2002 24.5569H42.5913C42.7205 24.5569 42.831 24.4625 42.8512 24.3341L43.1623 22.364C43.1909 22.1805 43.349 22.0458 43.5341 22.0458H44.3917C46.1775 22.0458 47.2075 21.1818 47.477 19.4697C47.5987 18.7207 47.4818 18.1322 47.1311 17.72C46.7462 17.2674 46.0634 17.028 45.1562 17.028ZM45.4689 19.5664C45.3211 20.539 44.578 20.539 43.8591 20.539H43.4505L43.7378 18.7227C43.7548 18.6129 43.8492 18.5321 43.9605 18.5321H44.148C44.637 18.5321 45.0991 18.5321 45.3377 18.8111C45.48 18.9775 45.5232 19.2248 45.4689 19.5664Z" fill="#179BD7"/>
<path d="M53.2583 19.5351H51.9612C51.8498 19.5351 51.7551 19.6159 51.7385 19.7257L51.681 20.0887L51.5898 19.9572C51.3088 19.5494 50.6827 19.413 50.0573 19.413C48.623 19.413 47.3984 20.4993 47.1598 22.0232C47.0362 22.7833 47.2117 23.5101 47.6429 24.017C48.0392 24.4831 48.6044 24.6773 49.2777 24.6773C50.4334 24.6773 51.0742 23.9342 51.0742 23.9342L51.0164 24.2948C50.9946 24.4328 51.1008 24.5564 51.2399 24.5564H52.4086C52.5937 24.5564 52.7514 24.4217 52.7804 24.2382L53.4822 19.7959C53.5036 19.6591 53.3974 19.5351 53.2583 19.5351ZM51.4491 22.0612C51.3247 22.8027 50.7354 23.3005 49.9848 23.3005C49.6087 23.3005 49.3067 23.1796 49.1133 22.9505C48.9214 22.7231 48.8493 22.3993 48.9095 22.0386C49.0273 21.3035 49.6249 20.7894 50.364 20.7894C50.7326 20.7894 51.0322 20.9119 51.2296 21.1429C51.4281 21.3764 51.5066 21.7021 51.4491 22.0612Z" fill="#179BD7"/>
<path d="M54.7891 17.2187L53.6767 24.2961C53.6549 24.4332 53.7611 24.5569 53.8994 24.5569H55.0178C55.2037 24.5569 55.3614 24.4221 55.3899 24.2386L56.487 17.2888C56.5088 17.1517 56.4025 17.0277 56.2642 17.0277H55.0119C54.9013 17.0281 54.8062 17.1089 54.7891 17.2187Z" fill="#179BD7"/>
<path d="M10.3888 25.9075L10.5961 24.591L10.1344 24.5803H7.92969L9.46185 14.8654C9.4666 14.836 9.48206 14.8087 9.50465 14.7893C9.52724 14.7699 9.55617 14.7592 9.58629 14.7592H13.3037C14.5379 14.7592 15.3895 15.016 15.8342 15.5229C16.0427 15.7606 16.1754 16.0091 16.2396 16.2826C16.307 16.5695 16.3082 16.9123 16.2424 17.3305L16.2377 17.361V17.6289L16.4461 17.747C16.6217 17.8401 16.7612 17.9467 16.8682 18.0688C17.0465 18.2721 17.1619 18.5305 17.2106 18.8369C17.261 19.1519 17.2443 19.5268 17.1619 19.9513C17.0668 20.4396 16.913 20.8648 16.7053 21.2128C16.5143 21.5334 16.271 21.7993 15.982 22.0054C15.7062 22.2012 15.3785 22.3498 15.0079 22.4449C14.6488 22.5384 14.2394 22.5856 13.7904 22.5856H13.5011C13.2942 22.5856 13.0933 22.6601 12.9356 22.7937C12.7774 22.93 12.6728 23.1163 12.6407 23.32L12.6189 23.4385L12.2527 25.7589L12.2361 25.8441C12.2317 25.8711 12.2242 25.8845 12.2131 25.8937C12.2032 25.902 12.1889 25.9075 12.175 25.9075H10.3888Z" fill="#253B80"/>
<path d="M16.6427 17.3919C16.6316 17.4629 16.6189 17.5354 16.6047 17.6099C16.1144 20.1269 14.4372 20.9964 12.2951 20.9964H11.2044C10.9425 20.9964 10.7217 21.1866 10.6809 21.445L10.1225 24.9865L9.96437 25.9904C9.93782 26.16 10.0686 26.313 10.2398 26.313H12.1742C12.4033 26.313 12.5979 26.1465 12.634 25.9206L12.653 25.8224L13.0172 23.511L13.0406 23.3842C13.0762 23.1575 13.2712 22.9911 13.5003 22.9911H13.7896C15.6638 22.9911 17.131 22.2302 17.5598 20.0282C17.7389 19.1084 17.6462 18.3403 17.1722 17.8001C17.0287 17.6372 16.8508 17.5021 16.6427 17.3919Z" fill="#179BD7"/>
<path d="M16.1306 17.1874C16.0557 17.1656 15.9784 17.1458 15.8991 17.1279C15.8195 17.1105 15.7378 17.095 15.6538 17.0816C15.3598 17.034 15.0376 17.0114 14.6924 17.0114H11.7786C11.7069 17.0114 11.6387 17.0277 11.5777 17.057C11.4434 17.1216 11.3435 17.2488 11.3193 17.4046L10.6995 21.3305L10.6816 21.445C10.7225 21.1866 10.9432 20.9964 11.2052 20.9964H12.2958C14.4379 20.9964 16.1151 20.1265 16.6054 17.6099C16.62 17.5353 16.6323 17.4628 16.6434 17.3919C16.5194 17.3261 16.385 17.2698 16.2404 17.2219C16.2047 17.21 16.1678 17.1985 16.1306 17.1874Z" fill="#222D65"/>
<path d="M11.3199 17.4046C11.3441 17.2488 11.444 17.1216 11.5783 17.0574C11.6398 17.0281 11.7075 17.0118 11.7793 17.0118H14.693C15.0382 17.0118 15.3604 17.0344 15.6545 17.082C15.7385 17.0954 15.8201 17.1109 15.8998 17.1283C15.979 17.1462 16.0563 17.166 16.1312 17.1878C16.1685 17.1989 16.2053 17.2104 16.2414 17.2219C16.3861 17.2698 16.5204 17.3265 16.6445 17.3919C16.7903 16.4617 16.6433 15.8284 16.1403 15.2549C15.5859 14.6236 14.5852 14.3533 13.3047 14.3533H9.58725C9.32568 14.3533 9.10256 14.5435 9.06213 14.8023L7.51372 24.6171C7.48321 24.8113 7.63302 24.9865 7.8288 24.9865H10.1239L10.7001 21.3305L11.3199 17.4046Z" fill="#253B80"/>
<rect x="0.5" y="0.5" width="63" height="39" stroke="#EAEAEA"/>
</svg>
